<?xml version="1.0" standalone="no"?>
<!DOCTYPE svg PUBLIC "-//W3C//DTD SVG 20010904//EN"
 "http://www.w3.org/TR/2001/REC-SVG-20010904/DTD/svg10.dtd">
<svg version="1.0" xmlns="http://www.w3.org/2000/svg"
 width="2500.000000pt" height="2500.000000pt" viewBox="0 0 2500.000000 2500.000000"
 preserveAspectRatio="xMidYMid meet">

<g transform="translate(0.000000,2500.000000) scale(0.100000,-0.100000)"
fill="#d8bea5" stroke="none">
<path d="M11872 22470 c-23 -12 -51 -35 -63 -51 -45 -63 -48 -255 -8 -529 52
-355 69 -488 83 -640 80 -841 23 -1997 -135 -2722 l-32 -148 -352 0 c-296 0
-393 4 -617 25 -630 59 -1431 97 -3265 154 l-903 29 -167 -42 c-166 -41 -169
-42 -255 -104 -68 -50 -102 -83 -154 -155 -68 -92 -68 -92 -105 -247 -21 -85
-38 -169 -39 -187 0 -38 48 -322 89 -523 60 -295 244 -1037 436 -1760 64 -239
157 -599 207 -799 l91 -365 -25 -21 c-28 -24 -192 -144 -608 -446 -514 -372
-831 -615 -1562 -1196 -401 -319 -408 -325 -476 -421 l-69 -97 -36 -155 -36
-155 36 -155 36 -155 70 -98 c200 -282 446 -491 1605 -1369 263 -199 541 -413
619 -476 l141 -114 -13 -36 c-60 -169 -162 -440 -292 -782 -326 -851 -408
-1091 -489 -1433 -77 -322 -78 -362 -25 -593 23 -98 46 -190 52 -204 6 -14 44
-71 85 -126 60 -83 90 -114 161 -166 140 -101 145 -104 373 -158 416 -99 760
-140 1825 -220 225 -17 410 -32 410 -33 1 -1 20 -180 44 -397 54 -500 124
-1068 157 -1275 31 -192 119 -576 144 -625 10 -19 52 -81 94 -137 75 -102 159
-176 281 -248 62 -37 363 -108 455 -108 94 1 493 92 690 159 269 91 687 265
1495 621 237 105 474 210 529 234 l98 43 17 -21 c9 -12 136 -167 282 -344 147
-178 358 -436 470 -573 509 -623 764 -899 984 -1063 77 -58 160 -115 185 -128
25 -12 126 -42 225 -65 l179 -43 166 38 c91 21 174 42 185 48 11 5 71 46 133
90 131 94 195 164 417 462 400 535 732 1027 1240 1830 125 198 228 361 230
363 2 2 184 -46 406 -107 906 -247 1444 -383 1964 -496 308 -67 392 -79 470
-66 178 27 297 144 326 323 13 73 4 1157 -12 1543 -47 1154 -234 3246 -405
4540 -145 1102 -183 1460 -204 1930 -23 527 -36 683 -81 945 -220 1278 -854
2727 -1730 3952 -798 1116 -1986 2364 -3274 3438 -568 474 -1022 815 -1685
1267 -731 499 -943 606 -1068 543z m-3892 -5125 c168 -8 503 -27 745 -40 1702
-97 2208 -146 2308 -225 l26 -21 -55 -87 c-109 -168 -387 -557 -754 -1052
-848 -1143 -1101 -1584 -1294 -2254 -262 -904 -258 -1862 10 -2760 134 -448
387 -983 661 -1400 211 -319 386 -529 718 -862 312 -312 523 -488 845 -704
679 -455 1533 -800 2191 -886 97 -13 248 -17 699 -21 878 -7 1090 6 1415 88
457 115 1254 443 1589 654 537 337 1421 1228 1830 1843 89 134 161 262 328
584 57 109 106 194 109 190 15 -16 83 -467 119 -787 77 -700 180 -1859 266
-3010 22 -294 28 -428 28 -735 1 -331 -1 -383 -17 -440 -10 -36 -25 -75 -33
-89 -15 -21 -21 -23 -68 -17 -75 9 -467 107 -981 246 -1086 294 -1454 371
-1770 370 -211 -1 -334 -40 -438 -139 -126 -119 -362 -461 -902 -1301 -413
-643 -767 -1160 -805 -1176 -34 -13 -334 335 -1020 1186 -390 485 -483 594
-635 746 -168 170 -224 204 -345 212 -103 6 -193 -10 -361 -64 -309 -99 -653
-239 -1363 -553 -664 -294 -1047 -454 -1105 -463 -20 -2 -26 3 -33 27 -12 47
-73 488 -112 820 -20 165 -52 437 -71 605 -76 642 -140 920 -232 1000 -120
106 -400 158 -1218 225 -562 46 -678 56 -880 76 -220 21 -430 47 -457 55 -26
8 -23 46 17 182 50 171 140 426 352 992 320 855 403 1144 403 1406 0 86 -16
333 -26 402 -7 47 22 25 -794 622 -440 322 -801 594 -990 745 -193 154 -370
319 -370 345 0 21 133 149 282 271 151 123 515 396 973 729 977 710 1121 841
1166 1058 21 104 6 418 -30 627 -66 374 -162 782 -390 1651 -154 590 -250
1028 -236 1083 15 59 22 61 219 61 100 0 318 -7 486 -15z"/>
</g>
</svg>
